<svg width="34" height="34" viewBox="0 0 34 34" fill="none" xmlns="http://www.w3.org/2000/svg">
<path d="M31.8752 8.5H3.1875C3.1875 7.03534 1.99591 5.84375 0.53125 5.84375C0.237867 5.84375 0 6.08162 0 6.375C0 6.66838 0.237867 6.90625 0.53125 6.90625C1.41007 6.90625 2.125 7.62118 2.125 8.5V27.625C2.125 27.9184 2.36287 28.1562 2.65625 28.1562C2.94963 28.1562 3.1875 27.9184 3.1875 27.625V27.0938H4.25066C5.12909 27.0938 5.84375 26.3791 5.84375 25.5007V25.5H31.8752C33.0468 25.5 34 24.5468 34 23.3752V10.6248C34 9.45319 33.0468 8.5 31.8752 8.5ZM32.9375 23.3752C32.9375 23.961 32.461 24.4375 31.8752 24.4375H5.3125C5.01912 24.4375 4.78125 24.6754 4.78125 24.9688V25.5007C4.78125 25.7933 4.54325 26.0312 4.25066 26.0312H3.1875V9.5625H31.8752C32.461 9.5625 32.9375 10.039 32.9375 10.6248V23.3752Z" fill="#548CA8"/>
<path d="M15.9375 12.75C14.4153 12.75 13.0782 13.5548 12.3275 14.7608C12.2754 14.8172 12.2359 14.884 12.2121 14.9569C11.8781 15.5636 11.6875 16.2599 11.6875 17C11.6875 17.7574 11.8876 18.4686 12.2363 19.0851C12.2487 19.1115 12.2633 19.1368 12.2798 19.1608C13.0208 20.4102 14.3827 21.25 15.9375 21.25C18.281 21.25 20.1875 19.3435 20.1875 17C20.1875 16.2426 19.9874 15.5314 19.6387 14.9149C19.6263 14.8885 19.6117 14.8632 19.5952 14.8392C18.8542 13.5898 17.4923 12.75 15.9375 12.75ZM12.75 17C12.75 16.7081 12.7902 16.4257 12.864 16.157C13.1028 16.368 13.4254 16.6039 13.8624 16.8562C14.2858 17.1007 14.6422 17.2598 14.9388 17.3617C14.7646 17.4986 14.5412 17.6529 14.2609 17.8147C13.6998 18.1386 13.277 18.2821 13.0417 18.3295C12.8549 17.9245 12.75 17.4744 12.75 17ZM19.125 17C19.125 17.2725 19.0905 17.537 19.0259 17.7896C18.7857 17.5753 18.4586 17.3349 18.0126 17.0774C17.6168 16.8489 17.2797 16.695 16.9952 16.5927C17.16 16.4676 17.3646 16.3294 17.6141 16.1853C18.1751 15.8615 18.598 15.7179 18.8333 15.6705C19.0201 16.0755 19.125 16.5256 19.125 17ZM18.1919 14.7488C17.8889 14.85 17.522 15.0117 17.0829 15.2652C16.6678 15.5049 16.3557 15.7298 16.1207 15.9327C16.0909 15.7172 16.0703 15.4539 16.0703 15.1406C16.0703 14.4923 16.1576 14.0542 16.2343 13.8268C16.9956 13.8974 17.6803 14.2364 18.1919 14.7488ZM15.1153 13.9205C15.0513 14.2338 15.0078 14.6329 15.0078 15.1406C15.0078 15.6092 15.0448 15.9854 15.1008 16.2868C14.9002 16.205 14.6632 16.0917 14.3936 15.936C13.8423 15.6178 13.5084 15.3278 13.3465 15.1469C13.7711 14.5549 14.3928 14.1137 15.1153 13.9205ZM13.6829 19.251C13.986 19.1498 14.3527 18.9885 14.7921 18.7348C15.2072 18.4951 15.5193 18.2702 15.7543 18.0673C15.7841 18.2828 15.8047 18.5461 15.8047 18.8594C15.8047 19.5077 15.7174 19.9458 15.6407 20.1732C14.8793 20.1026 14.1945 19.7635 13.6829 19.251ZM16.7597 20.0795C16.8237 19.7662 16.8672 19.3671 16.8672 18.8594C16.8672 18.3525 16.8238 17.9539 16.76 17.641C16.9636 17.7232 17.2055 17.8382 17.4814 17.9975C18.0634 18.3335 18.4039 18.6384 18.5547 18.8163C18.1297 19.4269 17.4971 19.8824 16.7597 20.0795Z" fill="#548CA8"/>
<path d="M29.2188 11.1562C28.9254 11.1562 28.6875 11.3941 28.6875 11.6875C28.6875 11.9809 28.9254 12.2188 29.2188 12.2188C29.8046 12.2188 30.2812 12.6954 30.2812 13.2813V20.7188C30.2812 21.3046 29.8046 21.7813 29.2188 21.7813H15.9375C13.3011 21.7813 11.1562 19.6364 11.1562 17C11.1562 14.3636 13.3011 12.2188 15.9375 12.2188H27.0938C27.3871 12.2188 27.625 11.9809 27.625 11.6875C27.625 11.3941 27.3871 11.1562 27.0938 11.1562H15.9375C12.7153 11.1562 10.0938 13.7778 10.0938 17C10.0938 20.2222 12.7153 22.8438 15.9375 22.8438H29.2188C30.3905 22.8438 31.3438 21.8905 31.3438 20.7188V13.2813C31.3438 12.1095 30.3905 11.1562 29.2188 11.1562Z" fill="#548CA8"/>
<path d="M7.4375 15.4062H5.84375C5.25791 15.4062 4.78125 15.8829 4.78125 16.4688V17.5312C4.78125 18.1171 5.25791 18.5938 5.84375 18.5938H7.4375C8.02334 18.5938 8.5 18.1171 8.5 17.5312V16.4688C8.5 15.8829 8.02334 15.4062 7.4375 15.4062ZM5.84375 17.5312V16.4688H7.4375L7.43757 17.5312H5.84375Z" fill="#548CA8"/>
<path d="M7.4375 11.6875H5.84375C5.25791 11.6875 4.78125 12.1642 4.78125 12.75V13.8125C4.78125 14.3983 5.25791 14.875 5.84375 14.875H7.4375C8.02334 14.875 8.5 14.3983 8.5 13.8125V12.75C8.5 12.1642 8.02334 11.6875 7.4375 11.6875ZM5.84375 13.8125V12.75H7.4375L7.43757 13.8125H5.84375Z" fill="#548CA8"/>
<path d="M7.4375 19.125H5.84375C5.25791 19.125 4.78125 19.6017 4.78125 20.1875V21.25C4.78125 21.8358 5.25791 22.3125 5.84375 22.3125H7.4375C8.02334 22.3125 8.5 21.8358 8.5 21.25V20.1875C8.5 19.6017 8.02334 19.125 7.4375 19.125ZM5.84375 21.25V20.1875H7.4375L7.43757 21.25H5.84375Z" fill="#548CA8"/>
<path d="M28.6875 13.2812H27.0938C26.8004 13.2812 26.5625 13.5191 26.5625 13.8125C26.5625 14.1059 26.8004 14.3438 27.0938 14.3438H28.6875C28.9809 14.3438 29.2188 14.1059 29.2188 13.8125C29.2188 13.5191 28.9809 13.2812 28.6875 13.2812Z" fill="#548CA8"/>
<path d="M28.6875 19.6562H27.0938C26.8004 19.6562 26.5625 19.8941 26.5625 20.1875C26.5625 20.4809 26.8004 20.7188 27.0938 20.7188H28.6875C28.9809 20.7188 29.2188 20.4809 29.2188 20.1875C29.2188 19.8941 28.9809 19.6562 28.6875 19.6562Z" fill="#548CA8"/>
<path d="M28.6875 14.875H27.0938C26.8004 14.875 26.5625 15.1129 26.5625 15.4062C26.5625 15.6996 26.8004 15.9375 27.0938 15.9375H28.6875C28.9809 15.9375 29.2188 15.6996 29.2188 15.4062C29.2188 15.1129 28.9809 14.875 28.6875 14.875Z" fill="#548CA8"/>
<path d="M28.6875 16.4688H27.0938C26.8004 16.4688 26.5625 16.7066 26.5625 17C26.5625 17.2934 26.8004 17.5312 27.0938 17.5312H28.6875C28.9809 17.5312 29.2188 17.2934 29.2188 17C29.2188 16.7066 28.9809 16.4688 28.6875 16.4688Z" fill="#548CA8"/>
<path d="M28.6875 18.0625H27.0938C26.8004 18.0625 26.5625 18.3004 26.5625 18.5938C26.5625 18.8871 26.8004 19.125 27.0938 19.125H28.6875C28.9809 19.125 29.2188 18.8871 29.2188 18.5938C29.2188 18.3004 28.9809 18.0625 28.6875 18.0625Z" fill="#548CA8"/>
</svg>
