<svg width="24" height="24" viewBox="0 0 24 24" fill="none" xmlns="http://www.w3.org/2000/svg">
<path d="M2.67962 3.63617L4.60868 1.70711C4.99921 1.31658 5.63237 1.31658 6.0229 1.70711L9.66131 5.34552C10.0518 5.73605 10.0518 6.36921 9.66132 6.75974L7.21114 9.20992C6.8336 9.58745 6.74 10.1642 6.97878 10.6418C8.3591 13.4024 10.5976 15.6409 13.3582 17.0212C13.8358 17.26 14.4125 17.1664 14.7901 16.7889L17.2403 14.3387C17.6308 13.9482 18.264 13.9482 18.6545 14.3387L22.2929 17.9771C22.6834 18.3676 22.6834 19.0008 22.2929 19.3913L20.3638 21.3204C18.2525 23.4317 14.9099 23.6693 12.5212 21.8777L9.20752 19.3925C7.46399 18.0848 5.91517 16.536 4.60752 14.7925L2.12226 11.4788C0.330723 9.09009 0.568272 5.74752 2.67962 3.63617Z" fill="#548CA8" stroke="#548CA8"/>
</svg>
