<svg width="54" height="56" viewBox="0 0 54 56" fill="none" xmlns="http://www.w3.org/2000/svg">
<g filter="url(#filter0_d_5_389)">
<path d="M44.1875 4.6875H9.8125C8.09375 4.6875 6.6875 6.09375 6.6875 7.8125V42.1875C6.6875 43.9063 8.09375 45.3125 9.8125 45.3125H44.1875C45.9063 45.3125 47.3125 43.9063 47.3125 42.1875V7.8125C47.3125 6.09375 45.9063 4.6875 44.1875 4.6875Z" stroke="#548CA8" stroke-width="3.4375" stroke-miterlimit="10" stroke-linecap="round" stroke-linejoin="round"/>
<path d="M27 9.375C35.6294 9.375 42.625 16.3706 42.625 25C42.625 33.6294 35.6294 40.625 27 40.625C18.3706 40.625 11.375 33.6294 11.375 25C11.375 16.3706 18.3706 9.375 27 9.375Z" stroke="#548CA8" stroke-width="3.4375" stroke-miterlimit="10" stroke-linecap="round" stroke-linejoin="round"/>
<path d="M27 20.3125C29.5888 20.3125 31.6875 22.4112 31.6875 25C31.6875 27.5888 29.5888 29.6875 27 29.6875C24.4112 29.6875 22.3125 27.5888 22.3125 25C22.3125 22.4112 24.4112 20.3125 27 20.3125Z" stroke="#548CA8" stroke-width="3.4375" stroke-miterlimit="10" stroke-linecap="round" stroke-linejoin="round"/>
<path d="M24.6562 29.0629C25.5938 32.8129 23.7187 36.5629 20.2812 38.1254L19.1875 38.5941" stroke="#548CA8" stroke-width="3.4375" stroke-miterlimit="10" stroke-linecap="round" stroke-linejoin="round"/>
<path d="M22.3125 24.9999C19.6562 27.6562 15.4375 27.9687 12.3125 25.7812L11.375 24.9999" stroke="#548CA8" stroke-width="3.4375" stroke-miterlimit="10" stroke-linecap="round" stroke-linejoin="round"/>
<path d="M24.6562 20.9374C20.9062 19.9999 18.5625 16.4061 19.0312 12.6561L19.1875 11.4061" stroke="#548CA8" stroke-width="3.4375" stroke-miterlimit="10" stroke-linecap="round" stroke-linejoin="round"/>
<path d="M29.3438 20.9374C28.4063 17.1874 30.2813 13.4374 33.7188 11.8749L34.8125 11.4061" stroke="#548CA8" stroke-width="3.4375" stroke-miterlimit="10" stroke-linecap="round" stroke-linejoin="round"/>
<path d="M31.6875 25C34.3438 22.3438 38.5625 22.0313 41.6875 24.2188L42.625 25" stroke="#548CA8" stroke-width="3.4375" stroke-miterlimit="10" stroke-linecap="round" stroke-linejoin="round"/>
<path d="M29.3438 29.0629C33.0938 30.0004 35.4375 33.5941 34.9688 37.3441L34.8125 38.5941" stroke="#548CA8" stroke-width="3.4375" stroke-miterlimit="10" stroke-linecap="round" stroke-linejoin="round"/>
<path d="M11.375 40.625H12.9375" stroke="#548CA8" stroke-width="3.4375" stroke-miterlimit="10" stroke-linecap="round" stroke-linejoin="round"/>
<path d="M41.0625 40.625H42.625" stroke="#548CA8" stroke-width="3.4375" stroke-miterlimit="10" stroke-linecap="round" stroke-linejoin="round"/>
<path d="M11.375 9.375H12.9375" stroke="#548CA8" stroke-width="3.4375" stroke-miterlimit="10" stroke-linecap="round" stroke-linejoin="round"/>
<path d="M41.0625 9.375H42.625" stroke="#548CA8" stroke-width="3.4375" stroke-miterlimit="10" stroke-linecap="round" stroke-linejoin="round"/>
</g>
<defs>
<filter id="filter0_d_5_389" x="-2" y="0" width="58" height="58" filterUnits="userSpaceOnUse" color-interpolation-filters="sRGB">
<feFlood flood-opacity="0" result="BackgroundImageFix"/>
<feColorMatrix in="SourceAlpha" type="matrix" values="0 0 0 0 0 0 0 0 0 0 0 0 0 0 0 0 0 0 127 0" result="hardAlpha"/>
<feOffset dy="4"/>
<feGaussianBlur stdDeviation="2"/>
<feComposite in2="hardAlpha" operator="out"/>
<feColorMatrix type="matrix" values="0 0 0 0 0 0 0 0 0 0 0 0 0 0 0 0 0 0 0.25 0"/>
<feBlend mode="normal" in2="BackgroundImageFix" result="effect1_dropShadow_5_389"/>
<feBlend mode="normal" in="SourceGraphic" in2="effect1_dropShadow_5_389" result="shape"/>
</filter>
</defs>
</svg>
