<svg width="50" height="50" viewBox="0 0 50 50" fill="none" xmlns="http://www.w3.org/2000/svg">
<path d="M46.8753 12.5H4.6875C4.6875 10.3461 2.93516 8.59375 0.78125 8.59375C0.349805 8.59375 0 8.94355 0 9.375C0 9.80645 0.349805 10.1562 0.78125 10.1562C2.07363 10.1562 3.125 11.2076 3.125 12.5V40.625C3.125 41.0564 3.4748 41.4062 3.90625 41.4062C4.3377 41.4062 4.6875 41.0564 4.6875 40.625V39.8438H6.25098C7.54277 39.8438 8.59375 38.7928 8.59375 37.501V37.5H46.8753C48.5982 37.5 50 36.0982 50 34.3753V15.6247C50 13.9018 48.5982 12.5 46.8753 12.5ZM48.4375 34.3753C48.4375 35.2367 47.7367 35.9375 46.8753 35.9375H7.8125C7.38105 35.9375 7.03125 36.2873 7.03125 36.7188V37.501C7.03125 37.9313 6.68125 38.2812 6.25098 38.2812H4.6875V14.0625H46.8753C47.7367 14.0625 48.4375 14.7633 48.4375 15.6247V34.3753Z" fill="#548CA8"/>
<path d="M23.4375 18.75C21.199 18.75 19.2327 19.9336 18.1286 21.707C18.0521 21.7899 17.9939 21.8883 17.959 21.9955C17.4678 22.8877 17.1875 23.9116 17.1875 25C17.1875 26.1139 17.4817 27.1597 17.9945 28.0663C18.0128 28.1052 18.0343 28.1423 18.0586 28.1776C19.1482 30.015 21.151 31.25 23.4375 31.25C26.8838 31.25 29.6875 28.4463 29.6875 25C29.6875 23.8861 29.3933 22.8403 28.8805 21.9337C28.8622 21.8948 28.8407 21.8577 28.8164 21.8224C27.7268 19.985 25.724 18.75 23.4375 18.75ZM18.75 25C18.75 24.5708 18.8091 24.1555 18.9177 23.7603C19.2688 24.0706 19.7432 24.4175 20.3859 24.7886C21.0086 25.148 21.5326 25.3821 21.9688 25.5319C21.7127 25.7332 21.3841 25.9602 20.9719 26.198C20.1468 26.6744 19.525 26.8854 19.1789 26.9551C18.9043 26.3596 18.75 25.6977 18.75 25ZM28.125 25C28.125 25.4007 28.0742 25.7897 27.9792 26.1612C27.626 25.8461 27.145 25.4925 26.4891 25.1138C25.907 24.7777 25.4113 24.5515 24.9929 24.4011C25.2354 24.217 25.5362 24.0138 25.9031 23.802C26.728 23.3258 27.35 23.1146 27.6961 23.0449C27.9707 23.6404 28.125 24.3023 28.125 25ZM26.7527 21.6894C26.3072 21.8382 25.7677 22.0761 25.122 22.4488C24.5114 22.8014 24.0524 23.1321 23.7069 23.4304C23.6631 23.1135 23.6328 22.7263 23.6328 22.2656C23.6328 21.3122 23.7611 20.6679 23.8739 20.3335C24.9936 20.4374 26.0004 20.9359 26.7527 21.6894ZM22.2284 20.4714C22.1343 20.932 22.0703 21.5189 22.0703 22.2656C22.0703 22.9547 22.1247 23.5079 22.2071 23.9512C21.912 23.8309 21.5636 23.6643 21.1671 23.4354C20.3563 22.9673 19.8653 22.5409 19.6271 22.2749C20.2516 21.4043 21.1659 20.7554 22.2284 20.4714ZM20.122 28.3104C20.5677 28.1615 21.1069 27.9242 21.753 27.5512C22.3636 27.1986 22.8226 26.8679 23.1681 26.5696C23.2119 26.8865 23.2422 27.2737 23.2422 27.7344C23.2422 28.6878 23.1139 29.3321 23.0011 29.6665C21.8813 29.5626 20.8743 29.064 20.122 28.3104ZM24.6466 29.5286C24.7407 29.068 24.8047 28.4811 24.8047 27.7344C24.8047 26.989 24.7409 26.4028 24.6471 25.9427C24.9465 26.0635 25.3021 26.2327 25.7079 26.4669C26.5638 26.961 27.0645 27.4095 27.2863 27.671C26.6613 28.5689 25.7311 29.2388 24.6466 29.5286Z" fill="#548CA8"/>
<path d="M42.9688 16.4062C42.5373 16.4062 42.1875 16.7561 42.1875 17.1875C42.1875 17.6189 42.5373 17.9688 42.9688 17.9688C43.8303 17.9688 44.5312 18.6697 44.5312 19.5313V30.4688C44.5312 31.3303 43.8303 32.0313 42.9688 32.0313H23.4375C19.5604 32.0313 16.4062 28.8771 16.4062 25C16.4062 21.1229 19.5604 17.9688 23.4375 17.9688H39.8438C40.2752 17.9688 40.625 17.6189 40.625 17.1875C40.625 16.7561 40.2752 16.4062 39.8438 16.4062H23.4375C18.6989 16.4062 14.8438 20.2614 14.8438 25C14.8438 29.7386 18.6989 33.5938 23.4375 33.5938H42.9688C44.6919 33.5938 46.0938 32.1919 46.0938 30.4688V19.5313C46.0938 17.8081 44.6919 16.4062 42.9688 16.4062Z" fill="#548CA8"/>
<path d="M10.9375 22.6562H8.59375C7.73223 22.6562 7.03125 23.3572 7.03125 24.2188V25.7812C7.03125 26.6428 7.73223 27.3438 8.59375 27.3438H10.9375C11.799 27.3438 12.5 26.6428 12.5 25.7812V24.2188C12.5 23.3572 11.799 22.6562 10.9375 22.6562ZM8.59375 25.7812V24.2188H10.9375L10.9376 25.7812H8.59375Z" fill="#548CA8"/>
<path d="M10.9375 17.1875H8.59375C7.73223 17.1875 7.03125 17.8885 7.03125 18.75V20.3125C7.03125 21.174 7.73223 21.875 8.59375 21.875H10.9375C11.799 21.875 12.5 21.174 12.5 20.3125V18.75C12.5 17.8885 11.799 17.1875 10.9375 17.1875ZM8.59375 20.3125V18.75H10.9375L10.9376 20.3125H8.59375Z" fill="#548CA8"/>
<path d="M10.9375 28.125H8.59375C7.73223 28.125 7.03125 28.826 7.03125 29.6875V31.25C7.03125 32.1115 7.73223 32.8125 8.59375 32.8125H10.9375C11.799 32.8125 12.5 32.1115 12.5 31.25V29.6875C12.5 28.826 11.799 28.125 10.9375 28.125ZM8.59375 31.25V29.6875H10.9375L10.9376 31.25H8.59375Z" fill="#548CA8"/>
<path d="M42.1875 19.5312H39.8438C39.4123 19.5312 39.0625 19.8811 39.0625 20.3125C39.0625 20.7439 39.4123 21.0938 39.8438 21.0938H42.1875C42.6189 21.0938 42.9688 20.7439 42.9688 20.3125C42.9688 19.8811 42.6189 19.5312 42.1875 19.5312Z" fill="#548CA8"/>
<path d="M42.1875 28.9062H39.8438C39.4123 28.9062 39.0625 29.2561 39.0625 29.6875C39.0625 30.1189 39.4123 30.4688 39.8438 30.4688H42.1875C42.6189 30.4688 42.9688 30.1189 42.9688 29.6875C42.9688 29.2561 42.6189 28.9062 42.1875 28.9062Z" fill="#548CA8"/>
<path d="M42.1875 21.875H39.8438C39.4123 21.875 39.0625 22.2248 39.0625 22.6562C39.0625 23.0877 39.4123 23.4375 39.8438 23.4375H42.1875C42.6189 23.4375 42.9688 23.0877 42.9688 22.6562C42.9688 22.2248 42.6189 21.875 42.1875 21.875Z" fill="#548CA8"/>
<path d="M42.1875 24.2188H39.8438C39.4123 24.2188 39.0625 24.5686 39.0625 25C39.0625 25.4314 39.4123 25.7812 39.8438 25.7812H42.1875C42.6189 25.7812 42.9688 25.4314 42.9688 25C42.9688 24.5686 42.6189 24.2188 42.1875 24.2188Z" fill="#548CA8"/>
<path d="M42.1875 26.5625H39.8438C39.4123 26.5625 39.0625 26.9123 39.0625 27.3438C39.0625 27.7752 39.4123 28.125 39.8438 28.125H42.1875C42.6189 28.125 42.9688 27.7752 42.9688 27.3438C42.9688 26.9123 42.6189 26.5625 42.1875 26.5625Z" fill="#548CA8"/>
</svg>
