<svg width="50" height="50" viewBox="0 0 50 50" fill="none" xmlns="http://www.w3.org/2000/svg">
<g clip-path="url(#clip0_5_332)">
<path d="M49.1594 15.7895C49.5956 15.7895 49.9489 15.4359 49.9489 15V5.54219C49.9489 4.01592 48.7071 2.77402 47.1807 2.77402H45.8437V0.789453C45.8437 0.353418 45.4904 0 45.0542 0H27.5806C27.1445 0 26.7912 0.353516 26.7912 0.789453V2.77402H2.81919C1.29292 2.77402 0.0510254 4.01582 0.0510254 5.54219V7.60742V25.0811V30.7816V43.4132V47.2316C0.0510254 48.7582 1.29292 50 2.81919 50H47.1805C48.707 50 49.9487 48.7582 49.9487 47.2318V17.4369C49.9487 17.0009 49.5954 16.6475 49.1592 16.6475C48.7231 16.6475 48.3698 17.001 48.3698 17.4369V47.2317C48.3698 47.8875 47.8363 48.421 47.1805 48.421H2.81919C2.16353 48.421 1.62993 47.8875 1.62993 47.2317V44.2028H3.6145C4.05054 44.2028 4.40395 43.8493 4.40395 43.4134V30.7818C4.40395 30.3458 4.05044 29.9924 3.6145 29.9924H1.62993V25.8707H3.6145C4.05054 25.8707 4.40395 25.5172 4.40395 25.0812V7.60742C4.40395 7.17139 4.05044 6.81797 3.6145 6.81797H1.62993V5.54219C1.62993 4.88652 2.16343 4.35293 2.81919 4.35293H27.5803H45.0541H47.1806C47.8363 4.35293 48.3699 4.88643 48.3699 5.54219V15C48.37 15.436 48.7233 15.7895 49.1594 15.7895ZM2.82505 31.5713V42.6239H1.62993V31.5713H2.82505ZM2.82505 8.39697V24.2917H1.62993V8.39697H2.82505ZM44.2647 2.77402H28.37V1.57891H44.2647V2.77402Z" fill="#548CA8"/>
<path d="M45.8437 7.60757C45.8437 7.17153 45.4904 6.81812 45.0542 6.81812H27.5806C27.1445 6.81812 26.7911 7.17163 26.7911 7.60757V25.0812C26.7911 25.5172 27.1445 25.8707 27.5806 25.8707H45.0542C45.4904 25.8707 45.8437 25.5171 45.8437 25.0812V7.60757ZM44.2648 24.2917H28.37V8.39702H44.2648V24.2917Z" fill="#548CA8"/>
<path d="M29.337 18.8903C29.337 19.3264 29.6905 19.6798 30.1265 19.6798H31.1593V20.7127C31.1593 21.1487 31.5127 21.5022 31.9488 21.5022H32.8961V22.4495C32.8961 22.8855 33.2494 23.239 33.6856 23.239C34.1217 23.239 34.475 22.8855 34.475 22.4495V21.5022H35.5277V22.4495C35.5277 22.8855 35.881 23.239 36.3171 23.239C36.7532 23.239 37.1066 22.8855 37.1066 22.4495V21.5022H38.1592V22.4495C38.1592 22.8855 38.5125 23.239 38.9487 23.239C39.3848 23.239 39.7381 22.8855 39.7381 22.4495V21.5022H40.6855C41.1216 21.5022 41.4749 21.1486 41.4749 20.7127V19.6798H42.5078C42.944 19.6798 43.2973 19.3263 43.2973 18.8903C43.2973 18.4544 42.944 18.1009 42.5078 18.1009H41.4749V17.0482H42.5078C42.944 17.0482 43.2973 16.6947 43.2973 16.2588C43.2973 15.8228 42.944 15.4693 42.5078 15.4693H41.4749V14.4167H42.5078C42.944 14.4167 43.2973 14.0632 43.2973 13.6272C43.2973 13.1912 42.944 12.8378 42.5078 12.8378H41.4749V11.9759C41.4749 11.5398 41.1215 11.1864 40.6855 11.1864H39.7381V10.0683C39.7381 9.63223 39.3848 9.27881 38.9487 9.27881C38.5125 9.27881 38.1592 9.63232 38.1592 10.0683V11.1866H37.1066V10.0683C37.1066 9.63223 36.7532 9.27881 36.3171 9.27881C35.881 9.27881 35.5277 9.63232 35.5277 10.0683V11.1866H34.475V10.0683C34.475 9.63223 34.1216 9.27881 33.6856 9.27881C33.2494 9.27881 32.8961 9.63232 32.8961 10.0683V11.1866H31.9488C31.5126 11.1866 31.1593 11.5401 31.1593 11.9761V12.838H30.1265C29.6904 12.838 29.337 13.1915 29.337 13.6274C29.337 14.0635 29.6905 14.4169 30.1265 14.4169H31.1593V15.4695H30.1265C29.6904 15.4695 29.337 15.823 29.337 16.259C29.337 16.695 29.6905 17.0484 30.1265 17.0484H31.1593V18.1011H30.1265C29.6905 18.101 29.337 18.4543 29.337 18.8903ZM32.7383 12.7653H39.8962V19.9232H32.7383V12.7653Z" fill="#548CA8"/>
<path d="M45.0541 35.9923C45.4903 35.9923 45.8436 35.6388 45.8436 35.2028V30.7817C45.8436 30.3457 45.4903 29.9923 45.0541 29.9923H42.6586V29.1737C42.6586 28.7377 42.3053 28.3843 41.8692 28.3843C41.433 28.3843 41.0797 28.7378 41.0797 29.1737V29.9923H23.2647C22.8286 29.9923 22.4752 30.3458 22.4752 30.7817C22.4752 31.2178 22.8287 31.5712 23.2647 31.5712H41.0797V34.4133H17.239V31.5713H20.8435C21.2795 31.5713 21.6329 31.2178 21.6329 30.7818C21.6329 30.3458 21.2794 29.9924 20.8435 29.9924H17.239V29.1738C17.239 28.7378 16.8855 28.3844 16.4495 28.3844C16.0135 28.3844 15.6601 28.7379 15.6601 29.1738V29.9924H13.2647C12.8286 29.9924 12.4752 30.3459 12.4752 30.7818V35.2029C12.4752 35.639 12.8287 35.9924 13.2647 35.9924H15.6601V38.2029H13.2647C12.8286 38.2029 12.4752 38.5564 12.4752 38.9924V43.4135C12.4752 43.8495 12.8287 44.2029 13.2647 44.2029H15.6601V44.9625C15.6601 45.3985 16.0136 45.752 16.4495 45.752C16.8856 45.752 17.239 45.3984 17.239 44.9625V44.2029H35.0541C35.4903 44.2029 35.8436 43.8494 35.8436 43.4135C35.8436 42.9774 35.4902 42.624 35.0541 42.624H17.239V39.7819H41.0797V42.624H37.4752C37.0391 42.624 36.6858 42.9775 36.6858 43.4135C36.6858 43.8495 37.0391 44.2029 37.4752 44.2029H41.0797V44.9625C41.0797 45.3985 41.433 45.752 41.8692 45.752C42.3053 45.752 42.6586 45.3984 42.6586 44.9625V44.2029H45.0541C45.4903 44.2029 45.8436 43.8494 45.8436 43.4135V38.9924C45.8436 38.5563 45.4902 38.2029 45.0541 38.2029H42.6586V35.9924H45.0541V35.9923ZM42.6586 31.5713H44.2646V34.4134H42.6586V31.5713ZM15.66 42.6239H14.0541V39.7818H15.66V42.6239ZM15.66 34.4134H14.0541V31.5713H15.66V34.4134ZM41.0797 38.2028H17.239V35.9923H41.0797V38.2028ZM42.6586 39.7818H44.2646V42.6239H42.6586V39.7818Z" fill="#548CA8"/>
<path d="M13.6331 25.0812C13.6331 25.5172 13.9866 25.8707 14.4225 25.8707C14.8585 25.8707 15.212 25.5171 15.212 25.0812V10.965C15.212 10.529 14.8584 10.1755 14.4225 10.1755C13.9865 10.1755 13.6331 10.5291 13.6331 10.965V25.0812Z" fill="#548CA8"/>
<path d="M14.4226 9.47378C14.8587 9.47378 15.2121 9.12026 15.2121 8.68433V7.60757C15.2121 7.17153 14.8586 6.81812 14.4226 6.81812C13.9866 6.81812 13.6332 7.17163 13.6332 7.60757V8.68433C13.6331 9.12026 13.9866 9.47378 14.4226 9.47378Z" fill="#548CA8"/>
<path d="M19.9552 25.0812C19.9552 25.5172 20.3087 25.8707 20.7447 25.8707C21.1807 25.8707 21.5341 25.5171 21.5341 25.0812V10.965C21.5341 10.529 21.1806 10.1755 20.7447 10.1755C20.3086 10.1755 19.9552 10.5291 19.9552 10.965V25.0812Z" fill="#548CA8"/>
<path d="M20.7447 9.47378C21.1807 9.47378 21.5341 9.12026 21.5341 8.68433V7.60757C21.5341 7.17153 21.1806 6.81812 20.7447 6.81812C20.3086 6.81812 19.9552 7.17163 19.9552 7.60757V8.68433C19.9552 9.12026 20.3086 9.47378 20.7447 9.47378Z" fill="#548CA8"/>
<path d="M17.5836 22.5132C18.0197 22.5132 18.3731 22.1597 18.3731 21.7238V7.60757C18.3731 7.17153 18.0196 6.81812 17.5836 6.81812C17.1476 6.81812 16.7942 7.17163 16.7942 7.60757V21.7238C16.7942 22.1597 17.1476 22.5132 17.5836 22.5132Z" fill="#548CA8"/>
<path d="M16.7942 25.0812C16.7942 25.5172 17.1477 25.8706 17.5836 25.8706C18.0197 25.8706 18.3731 25.5171 18.3731 25.0812V24.0044C18.3731 23.5684 18.0196 23.215 17.5836 23.215C17.1476 23.215 16.7942 23.5685 16.7942 24.0044V25.0812Z" fill="#548CA8"/>
<path d="M23.9057 22.5132C24.3417 22.5132 24.6951 22.1597 24.6951 21.7238V7.60757C24.6951 7.17153 24.3416 6.81812 23.9057 6.81812C23.4697 6.81812 23.1162 7.17163 23.1162 7.60757V21.7238C23.1162 22.1597 23.4697 22.5132 23.9057 22.5132Z" fill="#548CA8"/>
<path d="M23.1162 25.0812C23.1162 25.5172 23.4697 25.8706 23.9057 25.8706C24.3416 25.8706 24.6951 25.5171 24.6951 25.0812V24.0044C24.6951 23.5684 24.3416 23.215 23.9057 23.215C23.4697 23.215 23.1162 23.5685 23.1162 24.0044V25.0812Z" fill="#548CA8"/>
<path d="M36.3174 13.9254C35.0308 13.9254 33.984 14.9722 33.984 16.2588C33.984 17.5454 35.0308 18.5922 36.3174 18.5922C37.604 18.5922 38.6507 17.5454 38.6507 16.2588C38.6506 14.9721 37.604 13.9254 36.3174 13.9254ZM36.3174 17.0133C35.9014 17.0133 35.563 16.6749 35.563 16.2589C35.563 15.8429 35.9014 15.5045 36.3174 15.5045C36.7333 15.5045 37.0717 15.8429 37.0717 16.2589C37.0717 16.6748 36.7333 17.0133 36.3174 17.0133Z" fill="#548CA8"/>
</g>
<defs>
<clipPath id="clip0_5_332">
<rect width="50" height="50" fill="white"/>
</clipPath>
</defs>
</svg>
