<svg width="50" height="50" viewBox="0 0 50 50" fill="none" xmlns="http://www.w3.org/2000/svg">
<g clip-path="url(#clip0_5_374)">
<path d="M31.4692 7.49075H25.996V0.996118C25.996 0.446021 25.5501 0.00012207 25.0001 0.00012207C24.4501 0.00012207 24.0041 0.446021 24.0041 0.996118V7.49075H18.5309C14.6961 7.49075 11.5764 10.6105 11.5764 14.4452V36.5766C11.5764 43.9783 17.5983 50.0001 25.0001 50.0001C32.4018 50.0001 38.4237 43.9783 38.4237 36.5765V14.4451C38.4237 10.6105 35.304 7.49075 31.4692 7.49075ZM24.1802 15.1829C24.1802 14.7309 24.548 14.363 25.0001 14.363C25.4521 14.363 25.8199 14.7309 25.8199 15.1829V20.5172C25.8199 20.9693 25.4521 21.337 25.0001 21.337C24.548 21.337 24.1802 20.9693 24.1802 20.5172V15.1829ZM36.4316 36.5765C36.4316 42.8799 31.3034 48.008 25.0001 48.008C18.6967 48.008 13.5685 42.8798 13.5685 36.5765V14.4451C13.5685 11.7089 15.7947 9.48274 18.5309 9.48274H24.0041V12.5537C22.9439 12.9568 22.1882 13.983 22.1882 15.1828V20.5171C22.1882 21.717 22.9439 22.7431 24.0041 23.1462V24.3759C24.0041 24.926 24.4501 25.3719 25.0001 25.3719C25.5501 25.3719 25.996 24.926 25.996 24.3759V23.1462C27.0562 22.7432 27.8119 21.717 27.8119 20.5171V15.1828C27.8119 13.9829 27.0562 12.9568 25.996 12.5537V9.48284H31.4692C34.2055 9.48284 36.4316 11.709 36.4316 14.4452V36.5765Z" fill="#548CA8"/>
<path d="M15.6374 25.8132C15.0874 25.8132 14.6414 26.2591 14.6414 26.8092V27.4902C14.6414 28.0403 15.0874 28.4862 15.6374 28.4862C16.1874 28.4862 16.6334 28.0403 16.6334 27.4902V26.8092C16.6334 26.2591 16.1875 25.8132 15.6374 25.8132Z" fill="#548CA8"/>
<path d="M15.6374 13.3467C15.0874 13.3467 14.6414 13.7926 14.6414 14.3427V23.7627C14.6414 24.3128 15.0874 24.7587 15.6374 24.7587C16.1874 24.7587 16.6334 24.3128 16.6334 23.7627V14.3427C16.6334 13.7927 16.1875 13.3467 15.6374 13.3467Z" fill="#548CA8"/>
</g>
<defs>
<clipPath id="clip0_5_374">
<rect width="50" height="50" fill="white"/>
</clipPath>
</defs>
</svg>
