<svg width="50" height="50" viewBox="0 0 50 50" fill="none" xmlns="http://www.w3.org/2000/svg">
<path d="M36.9167 3.12512H13.0625C10.8649 3.12512 9.08337 4.90666 9.08337 7.10429V42.896C9.08337 45.0936 10.8649 46.8751 13.0625 46.8751H36.9167C39.1143 46.8751 40.8959 45.0936 40.8959 42.896V7.10429C40.8959 4.90666 39.1143 3.12512 36.9167 3.12512Z" stroke="#548CA8" stroke-width="4.84967" stroke-miterlimit="10"/>
<path d="M32.9583 11.0834H17.0416V19.0417H32.9583V11.0834Z" stroke="#548CA8" stroke-width="4.84967" stroke-miterlimit="10"/>
<path d="M25 40.896C26.0931 40.896 26.9792 40.0099 26.9792 38.9168C26.9792 37.8237 26.0931 36.9376 25 36.9376C23.907 36.9376 23.0209 37.8237 23.0209 38.9168C23.0209 40.0099 23.907 40.896 25 40.896Z" fill="#548CA8"/>
<path d="M17.0416 26.9792H32.9583" stroke="#548CA8" stroke-width="4.84967" stroke-miterlimit="10"/>
</svg>
