<svg width="52" height="50" viewBox="0 0 52 50" fill="none" xmlns="http://www.w3.org/2000/svg">
<g filter="url(#filter0_d_5_369)">
<path fill-rule="evenodd" clip-rule="evenodd" d="M12.8429 9.88828V34.7013C12.8429 35.508 13.4978 36.1629 14.3045 36.1629C15.1112 36.1629 15.7662 35.508 15.7662 34.7013V9.88828C15.7662 9.08155 15.1112 8.42664 14.3045 8.42664C13.4978 8.42664 12.8429 9.08155 12.8429 9.88828Z" fill="#548CA8"/>
<path fill-rule="evenodd" clip-rule="evenodd" d="M47.8526 28.7917V13.2637C47.8526 10.3039 45.4531 7.90442 42.4933 7.90442C34.7033 7.90442 17.2924 7.90442 9.50242 7.90442C6.54251 7.90442 4.14307 10.3039 4.14307 13.2637V35.4555C4.14307 38.4154 6.54251 40.8149 9.50237 40.8149H28.3636C29.8644 40.8149 31.2965 40.1855 32.3115 39.08L36.1127 34.9396C36.5741 34.4371 37.225 34.1511 37.9071 34.1511H42.4933C45.4531 34.151 47.8526 31.7516 47.8526 28.7917ZM44.9293 13.751V13.2637C44.9293 11.9184 43.8387 10.8277 42.4932 10.8277C42.4932 10.8277 9.50247 10.8277 9.50233 10.8277C8.15701 10.8277 7.06641 11.9184 7.06636 13.2638C7.06636 13.2638 7.06636 35.4554 7.06636 35.4555C7.06641 36.8009 8.15701 37.8915 9.50242 37.8916C9.50242 37.8916 28.3636 37.8916 28.3637 37.8916C29.0458 37.8915 29.6967 37.6055 30.1582 37.1029L33.9593 32.9626C34.9744 31.857 36.4064 31.2278 37.9072 31.2278H42.4933C43.8387 31.2277 44.9293 30.1371 44.9293 28.7917V28.3675H37.691C36.8843 28.3675 36.2294 27.7125 36.2294 26.9058C36.2294 26.0991 36.8843 25.4442 37.691 25.4442H44.9293V22.5209H37.691C36.8843 22.5209 36.2294 21.8659 36.2294 21.0592C36.2294 20.2525 36.8843 19.5976 37.691 19.5976H44.9293V16.6743H37.691C36.8843 16.6743 36.2294 16.0193 36.2294 15.2127C36.2294 14.4059 36.8843 13.751 37.691 13.751H44.9293Z" fill="#548CA8"/>
</g>
<defs>
<filter id="filter0_d_5_369" x="-3" y="0" width="58" height="58" filterUnits="userSpaceOnUse" color-interpolation-filters="sRGB">
<feFlood flood-opacity="0" result="BackgroundImageFix"/>
<feColorMatrix in="SourceAlpha" type="matrix" values="0 0 0 0 0 0 0 0 0 0 0 0 0 0 0 0 0 0 127 0" result="hardAlpha"/>
<feOffset dy="4"/>
<feGaussianBlur stdDeviation="2"/>
<feComposite in2="hardAlpha" operator="out"/>
<feColorMatrix type="matrix" values="0 0 0 0 0 0 0 0 0 0 0 0 0 0 0 0 0 0 0.25 0"/>
<feBlend mode="normal" in2="BackgroundImageFix" result="effect1_dropShadow_5_369"/>
<feBlend mode="normal" in="SourceGraphic" in2="effect1_dropShadow_5_369" result="shape"/>
</filter>
</defs>
</svg>
