<svg width="50" height="50" viewBox="0 0 50 50" fill="none" xmlns="http://www.w3.org/2000/svg">
<g clip-path="url(#clip0_5_349)">
<path d="M48.913 10.8696H1.08696C0.485796 10.8696 0 11.3554 0 11.9566V31.5218C0 32.123 0.485796 32.6088 1.08696 32.6088H2.17391V38.0435C2.17391 38.6447 2.65971 39.1305 3.26087 39.1305H46.7391C47.3403 39.1305 47.8261 38.6447 47.8261 38.0435V32.6088H48.913C49.5142 32.6088 50 32.123 50 31.5218V11.9566C50 11.3554 49.5142 10.8696 48.913 10.8696ZM45.6522 36.9566H42.3913H38.0435H33.6957H29.3478H25H20.6522H16.3043H11.9565H7.6087H4.34783V32.6088H7.6087H11.9565H16.3043H20.6522H25H29.3478H33.6957H38.0435H42.3913H45.6522V36.9566ZM47.8261 30.4348H46.7391H3.26087H2.17391V13.0435H47.8261V30.4348Z" fill="#548CA8"/>
<path d="M5.43473 28.261H11.9565C12.5576 28.261 13.0434 27.7752 13.0434 27.1741V16.3045C13.0434 15.7033 12.5576 15.2175 11.9565 15.2175H5.43473C4.83357 15.2175 4.34778 15.7033 4.34778 16.3045V27.1741C4.34778 27.7752 4.83357 28.261 5.43473 28.261ZM6.52169 17.3914H10.8695V26.0871H6.52169V17.3914Z" fill="#548CA8"/>
<path d="M16.3044 28.261H22.8261C23.4273 28.261 23.9131 27.7752 23.9131 27.1741V16.3045C23.9131 15.7033 23.4273 15.2175 22.8261 15.2175H16.3044C15.7032 15.2175 15.2174 15.7033 15.2174 16.3045V27.1741C15.2174 27.7752 15.7032 28.261 16.3044 28.261ZM17.3913 17.3914H21.7391V26.0871H17.3913V17.3914Z" fill="#548CA8"/>
<path d="M27.1739 28.261H33.6956C34.2968 28.261 34.7826 27.7752 34.7826 27.1741V16.3045C34.7826 15.7033 34.2968 15.2175 33.6956 15.2175H27.1739C26.5727 15.2175 26.0869 15.7033 26.0869 16.3045V27.1741C26.0869 27.7752 26.5727 28.261 27.1739 28.261ZM28.2608 17.3914H32.6087V26.0871H28.2608V17.3914Z" fill="#548CA8"/>
<path d="M38.0435 28.261H44.5652C45.1664 28.261 45.6522 27.7752 45.6522 27.1741V16.3045C45.6522 15.7033 45.1664 15.2175 44.5652 15.2175H38.0435C37.4423 15.2175 36.9565 15.7033 36.9565 16.3045V27.1741C36.9565 27.7752 37.4423 28.261 38.0435 28.261ZM39.1305 17.3914H43.4783V26.0871H39.1305V17.3914Z" fill="#548CA8"/>
<path d="M8.69564 35.8698V33.6958C8.69564 33.0947 8.20985 32.6089 7.60869 32.6089C7.00752 32.6089 6.52173 33.0947 6.52173 33.6958V35.8698C6.52173 36.4709 7.00752 36.9567 7.60869 36.9567C8.20985 36.9567 8.69564 36.4709 8.69564 35.8698Z" fill="#548CA8"/>
<path d="M13.0435 35.8698V33.6958C13.0435 33.0947 12.5577 32.6089 11.9566 32.6089C11.3554 32.6089 10.8696 33.0947 10.8696 33.6958V35.8698C10.8696 36.4709 11.3554 36.9567 11.9566 36.9567C12.5577 36.9567 13.0435 36.4709 13.0435 35.8698Z" fill="#548CA8"/>
<path d="M17.3913 35.8698V33.6958C17.3913 33.0947 16.9055 32.6089 16.3044 32.6089C15.7032 32.6089 15.2174 33.0947 15.2174 33.6958V35.8698C15.2174 36.4709 15.7032 36.9567 16.3044 36.9567C16.9055 36.9567 17.3913 36.4709 17.3913 35.8698Z" fill="#548CA8"/>
<path d="M21.7391 35.8698V33.6958C21.7391 33.0947 21.2533 32.6089 20.6521 32.6089C20.051 32.6089 19.5652 33.0947 19.5652 33.6958V35.8698C19.5652 36.4709 20.051 36.9567 20.6521 36.9567C21.2533 36.9567 21.7391 36.4709 21.7391 35.8698Z" fill="#548CA8"/>
<path d="M26.087 35.8698V33.6958C26.087 33.0947 25.6012 32.6089 25 32.6089C24.3989 32.6089 23.9131 33.0947 23.9131 33.6958V35.8698C23.9131 36.4709 24.3989 36.9567 25 36.9567C25.6012 36.9567 26.087 36.4709 26.087 35.8698Z" fill="#548CA8"/>
<path d="M30.4348 35.8698V33.6958C30.4348 33.0947 29.949 32.6089 29.3478 32.6089C28.7467 32.6089 28.2609 33.0947 28.2609 33.6958V35.8698C28.2609 36.4709 28.7467 36.9567 29.3478 36.9567C29.949 36.9567 30.4348 36.4709 30.4348 35.8698Z" fill="#548CA8"/>
<path d="M34.7827 35.8698V33.6958C34.7827 33.0947 34.2969 32.6089 33.6957 32.6089C33.0946 32.6089 32.6088 33.0947 32.6088 33.6958V35.8698C32.6088 36.4709 33.0946 36.9567 33.6957 36.9567C34.2969 36.9567 34.7827 36.4709 34.7827 35.8698Z" fill="#548CA8"/>
<path d="M39.1305 35.8698V33.6958C39.1305 33.0947 38.6447 32.6089 38.0435 32.6089C37.4423 32.6089 36.9565 33.0947 36.9565 33.6958V35.8698C36.9565 36.4709 37.4423 36.9567 38.0435 36.9567C38.6447 36.9567 39.1305 36.4709 39.1305 35.8698Z" fill="#548CA8"/>
<path d="M43.4782 35.8698V33.6958C43.4782 33.0947 42.9924 32.6089 42.3913 32.6089C41.7901 32.6089 41.3043 33.0947 41.3043 33.6958V35.8698C41.3043 36.4709 41.7901 36.9567 42.3913 36.9567C42.9924 36.9567 43.4782 36.4709 43.4782 35.8698Z" fill="#548CA8"/>
</g>
<defs>
<clipPath id="clip0_5_349">
<rect width="50" height="50" fill="white"/>
</clipPath>
</defs>
</svg>
